<svg width="67" height="12" viewBox="0 0 67 12" fill="none" xmlns="http://www.w3.org/2000/svg">
<path d="M5.80262 0.417433L4.21589 3.52017L0.665805 4.01933C0.0291704 4.10838 -0.225969 4.86532 0.235712 5.29886L2.80412 7.71262L2.19664 11.1224C2.0873 11.7387 2.76038 12.2004 3.32412 11.9121L6.5 10.3021L9.67588 11.9121C10.2396 12.198 10.9127 11.7387 10.8034 11.1224L10.1959 7.71262L12.7643 5.29886C13.226 4.86532 12.9708 4.10838 12.3342 4.01933L8.78411 3.52017L7.19738 0.417433C6.91308 -0.135624 6.08935 -0.142654 5.80262 0.417433Z" fill="#F72727"/>
<path d="M23.8026 0.417433L22.2159 3.52017L18.6658 4.01933C18.0292 4.10838 17.774 4.86532 18.2357 5.29886L20.8041 7.71262L20.1966 11.1224C20.0873 11.7387 20.7604 12.2004 21.3241 11.9121L24.5 10.3021L27.6759 11.9121C28.2396 12.198 28.9127 11.7387 28.8034 11.1224L28.1959 7.71262L30.7643 5.29886C31.226 4.86532 30.9708 4.10838 30.3342 4.01933L26.7841 3.52017L25.1974 0.417433C24.9131 -0.135624 24.0893 -0.142654 23.8026 0.417433Z" fill="#F72727"/>
<path d="M41.8026 0.417433L40.2159 3.52017L36.6658 4.01933C36.0292 4.10838 35.774 4.86532 36.2357 5.29886L38.8041 7.71262L38.1966 11.1224C38.0873 11.7387 38.7604 12.2004 39.3241 11.9121L42.5 10.3021L45.6759 11.9121C46.2396 12.198 46.9127 11.7387 46.8034 11.1224L46.1959 7.71262L48.7643 5.29886C49.226 4.86532 48.9708 4.10838 48.3342 4.01933L44.7841 3.52017L43.1974 0.417433C42.9131 -0.135624 42.0893 -0.142654 41.8026 0.417433Z" fill="#F72727"/>
<path d="M59.8026 0.417433L58.2159 3.52017L54.6658 4.01933C54.0292 4.10838 53.774 4.86532 54.2357 5.29886L56.8041 7.71262L56.1966 11.1224C56.0873 11.7387 56.7604 12.2004 57.3241 11.9121L60.5 10.3021L63.6759 11.9121C64.2396 12.198 64.9127 11.7387 64.8034 11.1224L64.1959 7.71262L66.7643 5.29886C67.226 4.86532 66.9708 4.10838 66.3342 4.01933L62.7841 3.52017L61.1974 0.417433C60.9131 -0.135624 60.0893 -0.142654 59.8026 0.417433Z" fill="#F72727"/>
</svg>
