<?xml version="1.0" encoding="UTF-8"?>
<!DOCTYPE svg PUBLIC "-//W3C//DTD SVG 1.1//EN" "http://www.w3.org/Graphics/SVG/1.1/DTD/svg11.dtd">
<svg xmlns="http://www.w3.org/2000/svg" version="1.1" width="999px" height="454px" style="shape-rendering:geometricPrecision; text-rendering:geometricPrecision; image-rendering:optimizeQuality; fill-rule:evenodd; clip-rule:evenodd" xmlns:xlink="http://www.w3.org/1999/xlink">
<g><path style="opacity:0.992" fill="#1d63b6" d="M 547.5,-0.5 C 575.167,-0.5 602.833,-0.5 630.5,-0.5C 688.157,1.52107 745.157,9.3544 801.5,23C 840.398,32.289 876.398,47.9557 909.5,70C 930.764,85.5868 947.264,105.087 959,128.5C 966.465,145.026 970.465,162.359 971,180.5C 986.782,202.018 995.948,226.018 998.5,252.5C 998.5,261.5 998.5,270.5 998.5,279.5C 994.142,319.05 976.142,350.883 944.5,375C 928.167,385.5 911.833,396 895.5,406.5C 895.167,406 894.833,405.5 894.5,405C 900.058,385.269 905.224,365.436 910,345.5C 911.742,335.857 912.242,326.19 911.5,316.5C 906.577,313.745 902.077,310.412 898,306.5C 884.86,317.074 870.86,326.407 856,334.5C 850.241,355.039 844.407,375.539 838.5,396C 845.524,396.169 852.524,396.669 859.5,397.5C 854.16,416.196 848.827,434.862 843.5,453.5C 578.833,453.5 314.167,453.5 49.5,453.5C 33.0235,453.06 18.8568,447.06 7,435.5C 4.2021,430.899 1.7021,426.232 -0.5,421.5C -0.5,415.5 -0.5,409.5 -0.5,403.5C 8.57673,368.7 17.9101,333.867 27.5,299C 61.8317,298.5 96.165,298.333 130.5,298.5C 144.536,262.181 163.536,228.848 187.5,198.5C 144.355,204.56 104.355,219.394 67.5,243C 66.5,243.667 65.5,243.667 64.5,243C 86.0094,201.157 117.343,168.824 158.5,146C 236.142,98.3373 320.142,67.6706 410.5,54C 387.75,44.8622 364.75,36.5289 341.5,29C 388.384,16.3964 436.051,8.06303 484.5,4C 505.642,2.28419 526.642,0.784191 547.5,-0.5 Z"/></g>
<g><path style="opacity:1" fill="#d01c2e" d="M 500.5,188.5 C 501.473,188.013 502.473,187.513 503.5,187C 500.304,186.195 497.304,186.362 494.5,187.5C 425.364,194.824 359.697,213.99 297.5,245C 275.884,255.806 254.884,267.64 234.5,280.5C 234.167,280.333 233.833,280.167 233.5,280C 276.997,221.49 331.997,177.49 398.5,148C 341.237,146.076 284.237,148.743 227.5,156C 322.248,110.146 422.248,85.3131 527.5,81.5C 540.517,81.8325 553.517,81.4991 566.5,80.5C 566.376,79.8933 566.043,79.56 565.5,79.5C 547.521,64.5008 527.854,52.0008 506.5,42C 588.792,31.8647 670.459,35.5313 751.5,53C 790.586,61.9055 826.586,77.5722 859.5,100C 880.975,116.139 898.141,135.972 911,159.5C 912.571,169.785 909.904,178.785 903,186.5C 888.204,201.984 871.038,214.151 851.5,223C 834.431,221.1 817.431,218.433 800.5,215C 814.008,207.923 826.008,198.923 836.5,188C 846.445,187.603 855.445,184.603 863.5,179C 867.968,174.432 869.968,168.932 869.5,162.5C 869.701,157.952 868.867,153.619 867,149.5C 866.544,153.391 865.044,156.725 862.5,159.5C 859.06,151.603 854.394,144.603 848.5,138.5C 848.167,138.667 847.833,138.833 847.5,139C 853.167,145.324 854.667,152.491 852,160.5C 850.649,162.019 849.149,163.352 847.5,164.5C 804.046,136.783 757.046,117.283 706.5,106C 651.417,93.7244 595.75,89.8911 539.5,94.5C 544.324,98.4915 548.657,102.991 552.5,108C 601.825,110.109 649.825,119.109 696.5,135C 707.434,138.884 717.934,143.717 728,149.5C 728.293,169.221 734.127,186.554 745.5,201.5C 728.823,191.493 711.823,181.993 694.5,173C 680.52,167.036 666.187,166.036 651.5,170C 628.495,180.833 618.662,198.999 622,224.5C 628.77,251.278 644.936,270.112 670.5,281C 698.08,292.263 726.747,296.596 756.5,294C 776.855,291.854 797.188,289.521 817.5,287C 824.167,286.333 830.833,286.333 837.5,287C 762.696,325.142 684.363,334.809 602.5,316C 579.602,309.884 558.935,299.551 540.5,285C 530.992,282.462 521.326,280.795 511.5,280C 474.744,277.862 438.411,280.862 402.5,289C 388.706,292.199 375.039,295.532 361.5,299C 376.853,272.639 396.853,250.306 421.5,232C 445.734,213.879 472.067,199.379 500.5,188.5 Z"/></g>
<g><path style="opacity:1" fill="#b52742" d="M 565.5,79.5 C 566.043,79.56 566.376,79.8933 566.5,80.5C 553.517,81.4991 540.517,81.8325 527.5,81.5C 540.167,80.8333 552.833,80.1667 565.5,79.5 Z"/></g>
<g><path style="opacity:1" fill="#fbfcfd" d="M 750.5,135.5 C 763.101,140.217 775.268,145.884 787,152.5C 786.968,154.598 786.301,156.598 785,158.5C 783.552,174.385 790.719,181.552 806.5,180C 811.185,178.65 814.685,175.817 817,171.5C 820.5,174.333 824,177.167 827.5,180C 814.182,191.217 798.848,196.217 781.5,195C 763.063,188.218 752.23,175.051 749,155.5C 748.128,148.706 748.628,142.039 750.5,135.5 Z"/></g>
<g><path style="opacity:1" fill="#f2f6fb" d="M 798.5,159.5 C 801.607,160.889 804.607,162.555 807.5,164.5C 808.582,167.776 807.248,169.443 803.5,169.5C 797.733,168.371 796.066,165.038 798.5,159.5 Z"/></g>
<g><path style="opacity:1" fill="#fafcfd" d="M 667.5,178.5 C 673.998,178.082 680.332,178.748 686.5,180.5C 682.868,197.28 681.535,214.28 682.5,231.5C 669.703,231.307 657.037,229.973 644.5,227.5C 641.043,210.04 645.71,195.206 658.5,183C 661.592,181.454 664.592,179.954 667.5,178.5 Z"/></g>
<g><path style="opacity:1" fill="#754376" d="M 494.5,187.5 C 497.304,186.362 500.304,186.195 503.5,187C 502.473,187.513 501.473,188.013 500.5,188.5C 498.735,187.539 496.735,187.205 494.5,187.5 Z"/></g>
<g><path style="opacity:1" fill="#cd1e30" d="M 912.5,197.5 C 920.735,200.291 927.068,205.457 931.5,213C 929.229,217.634 925.562,219.301 920.5,218C 914.065,214.726 908.732,210.226 904.5,204.5C 907.186,202.144 909.853,199.811 912.5,197.5 Z"/></g>
<g><path style="opacity:1" fill="#fbfcfe" d="M 694.5,186.5 C 699.936,190.09 705.27,193.923 710.5,198C 723.605,205.886 737.605,211.553 752.5,215C 753.478,221.41 753.811,227.91 753.5,234.5C 733.171,233.678 712.838,232.845 692.5,232C 690.859,216.774 691.525,201.608 694.5,186.5 Z"/></g>
<g><path style="opacity:1" fill="#cc1e31" d="M 897.5,207.5 C 904.58,215.223 913.246,220.723 923.5,224C 918.229,227.205 912.563,228.539 906.5,228C 905.299,227.097 904.465,225.931 904,224.5C 903.587,221.768 902.92,219.101 902,216.5C 899.959,215.577 897.792,215.244 895.5,215.5C 895.617,213.516 894.95,211.85 893.5,210.5C 894.901,209.479 896.235,208.479 897.5,207.5 Z"/></g>
<g><path style="opacity:1" fill="#f7f9fc" d="M 765.5,218.5 C 786.709,222.813 808.043,226.479 829.5,229.5C 829.646,233.519 829.979,237.519 830.5,241.5C 808.225,238.906 785.891,236.906 763.5,235.5C 763.5,233.833 763.5,232.167 763.5,230.5C 762.911,226.029 763.577,222.029 765.5,218.5 Z"/></g>
<g><path style="opacity:1" fill="#97b8de" d="M 765.5,218.5 C 763.577,222.029 762.911,226.029 763.5,230.5C 762.515,226.366 762.182,222.032 762.5,217.5C 763.791,217.263 764.791,217.596 765.5,218.5 Z"/></g>
<g><path style="opacity:1" fill="#f5f8fc" d="M 838.5,232.5 C 864.493,236.169 887.493,246.335 907.5,263C 886.337,254.205 864.337,247.871 841.5,244C 839.488,240.452 838.488,236.619 838.5,232.5 Z"/></g>
<g><path style="opacity:1" fill="#f9fafd" d="M 648.5,237.5 C 660.447,239.087 672.447,240.087 684.5,240.5C 686.202,251.306 688.535,261.973 691.5,272.5C 675.778,268.559 662.945,260.226 653,247.5C 650.676,244.52 649.176,241.187 648.5,237.5 Z"/></g>
<g><path style="opacity:1" fill="#fbfcfd" d="M 693.5,242.5 C 694.964,241.84 696.631,241.507 698.5,241.5C 717.499,242.283 736.499,243.116 755.5,244C 758.188,254.567 761.188,265.067 764.5,275.5C 743.797,278.317 723.13,278.15 702.5,275C 698.409,264.362 695.409,253.529 693.5,242.5 Z"/></g>
<g><path style="opacity:1" fill="#fbfcfd" d="M 765.5,244.5 C 787.565,245.841 809.565,248.008 831.5,251C 834.766,255.958 836.766,261.458 837.5,267.5C 816.44,269.488 795.44,271.655 774.5,274C 770.491,264.464 767.491,254.631 765.5,244.5 Z"/></g>
<g><path style="opacity:1" fill="#f4f7fb" d="M 843.5,253.5 C 858.119,256.238 872.452,260.071 886.5,265C 873.5,265.667 860.5,265.667 847.5,265C 845.47,261.411 844.137,257.578 843.5,253.5 Z"/></g>
<g><path style="opacity:1" fill="#cd1e30" d="M 130.5,339.5 C 129.957,339.56 129.624,339.893 129.5,340.5C 178.507,340.836 227.174,341.836 275.5,343.5C 275.335,346.518 275.502,349.518 276,352.5C 291.049,339.782 308.216,335.949 327.5,341C 334.583,342.416 340.416,345.916 345,351.5C 354.579,342.75 365.912,338.75 379,339.5C 389.66,338.967 399.493,341.467 408.5,347C 410.956,349.408 412.789,352.241 414,355.5C 414.667,360.5 414.667,365.5 414,370.5C 412.513,375.779 411.347,381.112 410.5,386.5C 407.753,386.187 405.086,386.52 402.5,387.5C 408.39,403.511 406.223,418.511 396,432.5C 387.131,440.572 376.631,444.738 364.5,445C 350.498,446.776 338.332,442.943 328,433.5C 314.657,442.773 299.823,446.606 283.5,445C 278.079,444.221 273.079,442.387 268.5,439.5C 267.571,440.689 267.238,442.022 267.5,443.5C 208.167,443.5 148.833,443.5 89.5,443.5C 89.5481,440.687 90.2147,438.021 91.5,435.5C 91.1667,435.167 90.8333,434.833 90.5,434.5C 66.6702,446.656 43.0036,446.49 19.5,434C 11.0965,426.695 7.59653,417.528 9,406.5C 17.1897,373.741 25.6897,341.074 34.5,308.5C 69.1683,308.333 103.835,308.5 138.5,309C 135.288,319.013 132.622,329.18 130.5,339.5 Z"/></g>
<g><path style="opacity:1" fill="#ce1e30" d="M 569.5,341.5 C 642.508,340.836 715.174,341.503 787.5,343.5C 781.695,364.388 776.361,385.388 771.5,406.5C 773.833,406.5 776.167,406.5 778.5,406.5C 784.164,384.506 789.831,362.506 795.5,340.5C 811.514,340.167 827.514,340.501 843.5,341.5C 837.361,363.057 831.694,384.724 826.5,406.5C 833.2,406.17 839.866,406.503 846.5,407.5C 843.322,419.212 839.989,430.878 836.5,442.5C 743.169,443.5 649.836,443.833 556.5,443.5C 557.004,439.493 557.17,435.493 557,431.5C 542.675,443.823 526.175,447.99 507.5,444C 501.942,442.554 496.942,440.054 492.5,436.5C 491.365,438.707 490.699,441.04 490.5,443.5C 461.5,443.5 432.5,443.5 403.5,443.5C 414.957,398.505 426.957,353.672 439.5,309C 458.842,308.167 478.175,308.334 497.5,309.5C 489.185,339.427 481.185,369.427 473.5,399.5C 478.833,399.5 484.167,399.5 489.5,399.5C 491.991,384.535 496.491,370.202 503,356.5C 516.155,342.448 532.322,336.948 551.5,340C 557.295,340.612 562.628,342.445 567.5,345.5C 568.172,344.051 568.839,342.718 569.5,341.5 Z"/></g>
<g><path style="opacity:1" fill="#2c66b5" d="M 122.5,345.5 C 121.957,345.56 121.624,345.893 121.5,346.5C 135.484,347.499 149.484,347.833 163.5,347.5C 163.105,351.185 162.938,354.852 163,358.5C 164.513,354.812 166.013,351.145 167.5,347.5C 182.01,347.171 196.343,347.504 210.5,348.5C 204.024,371.737 198.191,395.07 193,418.5C 203.167,394.833 213.333,371.167 223.5,347.5C 238.819,346.501 254.152,346.167 269.5,346.5C 268.227,363.838 266.893,381.171 265.5,398.5C 264.366,400.966 264.199,403.633 265,406.5C 265.41,405.099 265.91,403.766 266.5,402.5C 266.263,401.209 266.596,400.209 267.5,399.5C 273.509,399.666 279.509,399.499 285.5,399C 284.956,398.283 284.289,397.783 283.5,397.5C 274.316,392.12 270.816,384.12 273,373.5C 278.126,353.42 291.126,344.086 312,345.5C 322.744,344.348 332.078,347.348 340,354.5C 341.204,358.716 341.87,363.049 342,367.5C 346.189,355.317 354.689,348.151 367.5,346C 376.562,345.119 385.562,345.452 394.5,347C 402.873,348.707 407.873,353.707 409.5,362C 408.717,367.966 407.383,373.799 405.5,379.5C 398.858,380.331 392.191,380.831 385.5,381C 391.667,384.5 396.5,389.333 400,395.5C 402.856,421.624 391.356,436.124 365.5,439C 355.574,440.548 346.24,438.881 337.5,434C 331.914,430.329 329.414,425.162 330,418.5C 326.336,428.163 319.503,434.33 309.5,437C 296.57,440.837 283.904,440.171 271.5,435C 267.212,432.708 264.378,429.208 263,424.5C 262.501,428.821 262.334,433.154 262.5,437.5C 250.167,437.5 237.833,437.5 225.5,437.5C 228.581,420.789 227.581,420.456 222.5,436.5C 191.841,437.5 161.174,437.833 130.5,437.5C 130.167,433.5 129.833,433.5 129.5,437.5C 118.495,437.667 107.495,437.5 96.5,437C 98.9684,429.94 100.802,422.774 102,415.5C 92.7749,428.201 80.2749,435.368 64.5,437C 50.8097,439.126 37.8097,437.126 25.5,431C 18.4594,426.257 14.7928,419.59 14.5,411C 21.7423,378.697 30.0757,346.697 39.5,315C 69.8388,314.167 100.172,314.333 130.5,315.5C 127.519,325.427 124.852,335.427 122.5,345.5 Z"/></g>
<g><path style="opacity:1" fill="#3065b4" d="M 574.5,347.5 C 586.216,346.856 597.549,347.522 608.5,349.5C 607.779,352.817 607.612,356.151 608,359.5C 609.704,355.259 611.538,351.093 613.5,347C 625.162,346.5 636.829,346.333 648.5,346.5C 647.751,350.819 647.585,355.152 648,359.5C 649.704,355.259 651.538,351.093 653.5,347C 695.832,346.5 738.165,346.333 780.5,346.5C 774.989,368.209 769.323,389.876 763.5,411.5C 766.649,412.165 769.982,412.498 773.5,412.5C 777.239,412.486 780.572,411.82 783.5,410.5C 788.688,389.434 794.188,368.434 800,347.5C 811.753,346.512 823.586,346.179 835.5,346.5C 830.164,367.506 824.831,388.506 819.5,409.5C 818.596,410.209 818.263,411.209 818.5,412.5C 825.354,412.176 832.021,412.509 838.5,413.5C 836.296,421.446 834.296,429.446 832.5,437.5C 775.833,437.5 719.167,437.5 662.5,437.5C 668.996,413.514 675.163,389.514 681,365.5C 671.333,389.167 661.667,412.833 652,436.5C 638.579,437.49 625.079,437.823 611.5,437.5C 611.666,432.156 611.499,426.823 611,421.5C 608.538,426.752 606.371,432.085 604.5,437.5C 590.833,437.5 577.167,437.5 563.5,437.5C 565.256,419.791 567.089,402.125 569,384.5C 566.072,395.952 562.738,407.285 559,418.5C 552.367,430.412 542.201,437.246 528.5,439C 516.476,441.198 505.642,438.698 496,431.5C 493.233,427.965 491.566,423.965 491,419.5C 488.87,425.354 487.37,431.354 486.5,437.5C 461.5,437.5 436.5,437.5 411.5,437.5C 421.754,396.402 432.421,355.402 443.5,314.5C 458.833,314.5 474.167,314.5 489.5,314.5C 481.815,344.573 473.815,374.573 465.5,404.5C 474.81,405.498 484.143,405.832 493.5,405.5C 496.373,392.676 499.873,380.009 504,367.5C 509.436,355.684 518.602,348.517 531.5,346C 538.833,345.333 546.167,345.333 553.5,346C 562.414,347.369 568.58,352.202 572,360.5C 572.917,356.138 573.751,351.805 574.5,347.5 Z"/></g>
<g><path style="opacity:1" fill="#fcfdfe" d="M 42.5,318.5 C 54.5185,318.168 66.5185,318.501 78.5,319.5C 70.5159,348.435 62.6826,377.435 55,406.5C 54.3333,408.5 54.3333,410.5 55,412.5C 57.9156,414.013 60.5823,413.68 63,411.5C 72.2814,380.707 80.7814,349.707 88.5,318.5C 100.518,318.168 112.518,318.501 124.5,319.5C 116.729,347.391 109.229,375.391 102,403.5C 97.1068,419.058 86.6068,428.225 70.5,431C 57.3115,433.507 44.3115,432.84 31.5,429C 21.154,423.987 17.3206,415.82 20,404.5C 27.8084,375.893 35.3084,347.226 42.5,318.5 Z"/></g>
<g><path style="opacity:1" fill="#fcfdfe" d="M 460.5,407.5 C 459.596,408.209 459.263,409.209 459.5,410.5C 469.227,409.861 478.56,410.528 487.5,412.5C 485.833,419.167 484.166,425.834 482.5,432.5C 460.66,432.831 438.994,432.497 417.5,431.5C 427.019,394.104 436.853,356.771 447,319.5C 459.086,318.512 471.253,318.178 483.5,318.5C 475.676,348.128 468.01,377.795 460.5,407.5 Z"/></g>
<g><path style="opacity:1" fill="#93345c" d="M 130.5,339.5 C 178.997,340.499 227.664,340.832 276.5,340.5C 276.737,341.791 276.404,342.791 275.5,343.5C 227.174,341.836 178.507,340.836 129.5,340.5C 129.624,339.893 129.957,339.56 130.5,339.5 Z"/></g>
<g><path style="opacity:1" fill="#93345c" d="M 569.5,341.5 C 642.331,340.501 715.331,340.167 788.5,340.5C 788.737,341.791 788.404,342.791 787.5,343.5C 715.174,341.503 642.508,340.836 569.5,341.5 Z"/></g>
<g><path style="opacity:1" fill="#634780" d="M 122.5,345.5 C 136.167,346.167 149.833,346.833 163.5,347.5C 149.484,347.833 135.484,347.499 121.5,346.5C 121.624,345.893 121.957,345.56 122.5,345.5 Z"/></g>
<g><path style="opacity:1" fill="#68457d" d="M 167.5,347.5 C 182.005,346.174 196.672,346.174 211.5,347.5C 211.376,348.107 211.043,348.44 210.5,348.5C 196.343,347.504 182.01,347.171 167.5,347.5 Z"/></g>
<g><path style="opacity:1" fill="#65467e" d="M 574.5,347.5 C 585.988,346.505 597.655,346.172 609.5,346.5C 609.737,347.791 609.404,348.791 608.5,349.5C 597.549,347.522 586.216,346.856 574.5,347.5 Z"/></g>
<g><path style="opacity:1" fill="#fbfcfd" d="M 334.5,375.5 C 326.427,376.132 318.76,375.465 311.5,373.5C 312.135,370.507 312.301,367.507 312,364.5C 308.467,362.925 305.8,363.925 304,367.5C 302.682,370.406 302.348,373.406 303,376.5C 310.253,381.21 317.42,386.043 324.5,391C 325.787,392.41 326.954,393.91 328,395.5C 329.362,405.055 327.695,414.055 323,422.5C 321.5,425.333 319.333,427.5 316.5,429C 301.917,435.775 287.25,436.108 272.5,430C 268.698,426.936 267.031,422.936 267.5,418C 268.043,413.409 269.043,408.909 270.5,404.5C 278.472,403.502 286.472,403.169 294.5,403.5C 293.303,408.847 292.469,414.18 292,419.5C 298.22,421.642 301.553,419.308 302,412.5C 303.568,407.421 302.068,403.587 297.5,401C 291.488,397.662 285.821,393.828 280.5,389.5C 275.234,377.429 277.234,366.596 286.5,357C 301.296,348.2 316.629,347.2 332.5,354C 337.218,357.343 338.718,361.843 337,367.5C 336.454,370.379 335.621,373.046 334.5,375.5 Z"/></g>
<g><path style="opacity:1" fill="#fbfcfd" d="M 402.5,375.5 C 394.316,375.826 386.316,375.492 378.5,374.5C 379.114,370.865 379.448,367.198 379.5,363.5C 376.348,362.959 373.848,363.959 372,366.5C 370.496,370.039 370.163,373.705 371,377.5C 377.083,381.459 383.249,385.292 389.5,389C 391.709,390.873 393.542,393.04 395,395.5C 396.835,407.356 394.001,417.856 386.5,427C 372.889,434.743 358.556,436.409 343.5,432C 336.001,428.501 333.167,422.667 335,414.5C 335.995,410.855 336.828,407.188 337.5,403.5C 345.5,403.5 353.5,403.5 361.5,403.5C 360.584,408.898 359.75,414.231 359,419.5C 362.525,421.19 365.525,420.524 368,417.5C 369.363,413.239 369.696,408.905 369,404.5C 363.423,400.294 357.59,396.46 351.5,393C 344.01,385.679 342.51,377.179 347,367.5C 351.88,357.137 360.046,351.304 371.5,350C 382.063,348.447 392.063,350.113 401.5,355C 402.701,355.903 403.535,357.069 404,358.5C 404.162,364.206 403.662,369.873 402.5,375.5 Z"/></g>
<g><path style="opacity:1" fill="#fcfdfe" d="M 536.5,349.5 C 545.284,348.647 553.618,350.147 561.5,354C 563.709,355.873 565.542,358.04 567,360.5C 567.632,366.214 567.299,371.881 566,377.5C 562.442,392.063 558.109,406.397 553,420.5C 541.468,432.819 527.301,437.319 510.5,434C 501.42,432.092 496.42,426.592 495.5,417.5C 499.149,399.054 504.316,381.054 511,363.5C 517.793,355.524 526.293,350.857 536.5,349.5 Z"/></g>
<g><path style="opacity:1" fill="#fcfdfe" d="M 183.5,432.5 C 175.757,433.13 168.424,432.463 161.5,430.5C 165.738,413.798 169.905,397.132 174,380.5C 166.861,397.582 159.528,414.582 152,431.5C 146.593,432.473 141.093,432.807 135.5,432.5C 136.64,416.136 137.806,399.802 139,383.5C 134.317,399.911 129.817,416.245 125.5,432.5C 117.981,432.825 110.648,432.492 103.5,431.5C 110.028,405.054 117.028,378.721 124.5,352.5C 135.814,351.501 147.147,351.168 158.5,351.5C 157.153,363.148 156.319,374.815 156,386.5C 161.109,375.282 165.942,363.949 170.5,352.5C 181.814,351.501 193.147,351.168 204.5,351.5C 197.662,378.517 190.662,405.517 183.5,432.5 Z"/></g>
<g><path style="opacity:1" fill="#fcfdfe" d="M 218.5,432.5 C 209.651,432.826 200.984,432.493 192.5,431.5C 203.543,405.076 214.876,378.743 226.5,352.5C 239.149,351.501 251.816,351.168 264.5,351.5C 261.979,378.461 259.979,405.461 258.5,432.5C 249.5,432.5 240.5,432.5 231.5,432.5C 231.795,428.102 232.462,423.769 233.5,419.5C 230.232,418.513 226.898,418.18 223.5,418.5C 222.354,423.438 220.687,428.105 218.5,432.5 Z"/></g>
<g><path style="opacity:1" fill="#fcfdfe" d="M 648.5,432.5 C 637.833,432.5 627.167,432.5 616.5,432.5C 616.5,430.5 616.5,428.5 616.5,426.5C 617.555,415.847 618.055,405.181 618,394.5C 611.674,406.818 606.174,419.485 601.5,432.5C 590.5,432.5 579.5,432.5 568.5,432.5C 571.588,405.464 574.921,378.464 578.5,351.5C 586.833,351.5 595.167,351.5 603.5,351.5C 600.242,369.81 597.409,388.143 595,406.5C 601.779,388.158 608.946,369.991 616.5,352C 625.518,351.168 634.518,351.335 643.5,352.5C 639.687,370.375 636.854,388.375 635,406.5C 641.412,388.264 648.412,370.264 656,352.5C 664.441,351.185 672.941,351.185 681.5,352.5C 670.485,379.192 659.485,405.859 648.5,432.5 Z"/></g>
<g><path style="opacity:1" fill="#fdfdfe" d="M 689.5,351.5 C 706.167,351.5 722.833,351.5 739.5,351.5C 738.182,356.773 737.182,362.107 736.5,367.5C 728.167,367.5 719.833,367.5 711.5,367.5C 710.637,372.617 709.304,377.617 707.5,382.5C 713.463,383.496 719.463,383.829 725.5,383.5C 724.623,388.554 723.623,393.554 722.5,398.5C 716.132,398.17 709.798,398.504 703.5,399.5C 701.907,405.139 700.573,410.805 699.5,416.5C 707.167,416.5 714.833,416.5 722.5,416.5C 721.241,421.702 719.908,426.869 718.5,432C 701.833,432.667 685.167,432.667 668.5,432C 675.928,405.301 682.928,378.467 689.5,351.5 Z"/></g>
<g><path style="opacity:1" fill="#fcfdfe" d="M 773.5,432.5 C 757.991,432.83 742.658,432.496 727.5,431.5C 734.189,404.742 741.189,378.075 748.5,351.5C 757.192,351.169 765.859,351.502 774.5,352.5C 768.579,373.775 762.912,395.108 757.5,416.5C 764.167,416.5 770.833,416.5 777.5,416.5C 776.167,421.833 774.834,427.166 773.5,432.5 Z"/></g>
<g><path style="opacity:1" fill="#fcfdfe" d="M 803.5,351.5 C 812.167,351.5 820.833,351.5 829.5,351.5C 824.211,373.281 818.545,394.947 812.5,416.5C 819.167,416.5 825.833,416.5 832.5,416.5C 831.182,421.773 830.182,427.107 829.5,432.5C 813.833,432.5 798.167,432.5 782.5,432.5C 789.624,405.549 796.624,378.549 803.5,351.5 Z"/></g>
<g><path style="opacity:1" fill="#2769b9" d="M 537.5,363.5 C 540.59,362.83 542.257,363.997 542.5,367C 538.318,384.747 533.318,402.247 527.5,419.5C 525.604,420.466 523.604,420.799 521.5,420.5C 524.711,402.988 528.877,385.655 534,368.5C 534.997,366.677 536.164,365.01 537.5,363.5 Z"/></g>
<g><path style="opacity:1" fill="#ce1d30" d="M 715.5,372.5 C 722.833,372.5 730.167,372.5 737.5,372.5C 734.652,385.226 731.485,397.892 728,410.5C 720.587,411.481 713.087,411.814 705.5,411.5C 705.833,408.833 706.167,406.167 706.5,403.5C 712.833,403.5 719.167,403.5 725.5,403.5C 727.658,395.202 729.658,386.868 731.5,378.5C 725.833,378.5 720.167,378.5 714.5,378.5C 714.325,376.379 714.659,374.379 715.5,372.5 Z"/></g>
<g><path style="opacity:1" fill="#2c6bba" d="M 240.5,372.5 C 241.097,372.735 241.43,373.235 241.5,374C 239.466,383.738 238.133,393.571 237.5,403.5C 234.5,403.5 231.5,403.5 228.5,403.5C 232.216,393.066 236.216,382.733 240.5,372.5 Z"/></g>
<g><path style="opacity:1" fill="#a4c1e2" d="M 311.5,373.5 C 318.76,375.465 326.427,376.132 334.5,375.5C 326.684,376.492 318.684,376.826 310.5,376.5C 310.263,375.209 310.596,374.209 311.5,373.5 Z"/></g>
<g><path style="opacity:1" fill="#9ebde0" d="M 378.5,374.5 C 386.316,375.492 394.316,375.826 402.5,375.5C 394.324,376.821 385.991,376.821 377.5,375.5C 377.624,374.893 377.957,374.56 378.5,374.5 Z"/></g>
<g><path style="opacity:1" fill="#774072" d="M 340.5,384.5 C 339.833,382.5 339.167,380.5 338.5,378.5C 338.892,376.821 339.392,375.154 340,373.5C 340.499,377.152 340.665,380.818 340.5,384.5 Z"/></g>
<g><path style="opacity:1" fill="#cd1d30" d="M 338.5,378.5 C 339.167,380.5 339.833,382.5 340.5,384.5C 341.665,390.495 344.998,394.828 350.5,397.5C 345.025,398.489 339.358,398.822 333.5,398.5C 330.89,390.716 325.89,384.883 318.5,381C 325.575,381.133 332.242,380.3 338.5,378.5 Z"/></g>
<g><path style="opacity:0.84" fill="#1a65b6" d="M 848.5,382.5 C 852.989,382.956 857.322,382.956 861.5,382.5C 861.343,383.873 861.51,385.207 862,386.5C 863.026,383.307 865.192,381.974 868.5,382.5C 867.833,385.833 867.167,389.167 866.5,392.5C 864.876,392.64 863.71,391.973 863,390.5C 860.929,393.416 859.595,393.082 859,389.5C 858.517,390.448 858.351,391.448 858.5,392.5C 857.022,392.762 855.689,392.429 854.5,391.5C 855.167,389.833 855.833,388.167 856.5,386.5C 856,386.167 855.5,385.833 855,385.5C 853.115,386.992 852.115,388.992 852,391.5C 850.989,392.337 849.822,392.67 848.5,392.5C 849.586,388.912 849.586,385.579 848.5,382.5 Z"/></g>
<g><path style="opacity:1" fill="#9d3154" d="M 283.5,397.5 C 284.289,397.783 284.956,398.283 285.5,399C 279.509,399.499 273.509,399.666 267.5,399.5C 272.833,398.833 278.167,398.167 283.5,397.5 Z"/></g>
<g><path style="opacity:1" fill="#a02f52" d="M 350.5,397.5 C 351.289,397.783 351.956,398.283 352.5,399C 345.986,399.82 339.653,399.653 333.5,398.5C 339.358,398.822 345.025,398.489 350.5,397.5 Z"/></g>
<g><path style="opacity:1" fill="#893a65" d="M 265.5,398.5 C 265.232,400.099 265.566,401.432 266.5,402.5C 265.91,403.766 265.41,405.099 265,406.5C 264.199,403.633 264.366,400.966 265.5,398.5 Z"/></g>
<g><path style="opacity:1" fill="#699ad0" d="M 460.5,407.5 C 469.44,409.472 478.773,410.139 488.5,409.5C 488.737,410.791 488.404,411.791 487.5,412.5C 478.56,410.528 469.227,409.861 459.5,410.5C 459.263,409.209 459.596,408.209 460.5,407.5 Z"/></g>
<g><path style="opacity:1" fill="#853a67" d="M 783.5,410.5 C 780.572,411.82 777.239,412.486 773.5,412.5C 769.982,412.498 766.649,412.165 763.5,411.5C 770.255,411.793 776.922,411.46 783.5,410.5 Z"/></g>
<g><path style="opacity:1" fill="#8c3761" d="M 819.5,409.5 C 825.783,411.143 832.45,412.143 839.5,412.5C 839.376,413.107 839.043,413.44 838.5,413.5C 832.021,412.509 825.354,412.176 818.5,412.5C 818.263,411.209 818.596,410.209 819.5,409.5 Z"/></g>
<g><path style="opacity:1" fill="#82aad8" d="M 103.5,431.5 C 110.648,432.492 117.981,432.825 125.5,432.5C 117.99,433.82 110.323,433.82 102.5,432.5C 102.624,431.893 102.957,431.56 103.5,431.5 Z"/></g>
<g><path style="opacity:1" fill="#86add9" d="M 161.5,430.5 C 168.424,432.463 175.757,433.13 183.5,432.5C 176.018,433.492 168.352,433.825 160.5,433.5C 160.263,432.209 160.596,431.209 161.5,430.5 Z"/></g>
<g><path style="opacity:1" fill="#82a9d8" d="M 192.5,431.5 C 200.984,432.493 209.651,432.826 218.5,432.5C 209.658,433.822 200.658,433.822 191.5,432.5C 191.624,431.893 191.957,431.56 192.5,431.5 Z"/></g>
<g><path style="opacity:1" fill="#83aad8" d="M 417.5,431.5 C 438.994,432.497 460.66,432.831 482.5,432.5C 460.663,433.828 438.663,433.828 416.5,432.5C 416.624,431.893 416.957,431.56 417.5,431.5 Z"/></g>
<g><path style="opacity:1" fill="#81a9d7" d="M 616.5,426.5 C 616.5,428.5 616.5,430.5 616.5,432.5C 627.167,432.5 637.833,432.5 648.5,432.5C 637.679,433.495 626.679,433.828 615.5,433.5C 615.198,430.941 615.532,428.607 616.5,426.5 Z"/></g>
<g><path style="opacity:1" fill="#83abd8" d="M 727.5,431.5 C 742.658,432.496 757.991,432.83 773.5,432.5C 757.995,433.827 742.328,433.827 726.5,432.5C 726.624,431.893 726.957,431.56 727.5,431.5 Z"/></g>
</svg>
